<?xml version="1.0" encoding="UTF-8"?>
<svg id="Layer_1" data-name="Layer 1" xmlns="http://www.w3.org/2000/svg" viewBox="0 0 343.38 176.59">
  <defs>
    <style>
      .cls-1 {
        fill: #f2f2f2;
      }

      .cls-2 {
        fill: #00e0d5;
      }
    </style>
  </defs>
  <g>
    <path class="cls-2" d="M30.9,123.44l5.31-29.98h13.16c9.66,0,14.86,4.5,13.12,14.36-2,11.29-9.05,15.62-18.67,15.62h-12.91ZM41.97,116.44h2.08c4.58,0,7.51-2.41,8.51-8.08,1.1-6.25-.64-7.91-5.89-7.91h-1.87l-2.83,15.99Z"/>
    <path class="cls-2" d="M63.76,123.44l5.31-29.98h24.44l-1.24,6.99h-14.62l-.76,4.29h12.37l-1.24,7h-12.37l-.83,4.71h15.2l-1.24,7h-25.03Z"/>
  </g>
  <g>
    <path class="cls-1" d="M39.56,32.2h16.17l-2.8,15.96,16.98-15.96h18.97l-21.27,18.57,14.53,30.75h-19.38l-8.4-19.66-4.55,4.04-2.74,15.62h-16.17l8.66-49.32Z"/>
    <path class="cls-1" d="M75.92,81.52l26.33-49.32h16.44l9.01,49.32h-16.1l-.78-6.51h-16.1l-2.99,6.51h-15.82ZM107.72,47.07l-8.1,17.67h10.21l-2.1-17.67Z"/>
    <path class="cls-1" d="M132.19,32.2h16.3l2.87,32.81,14.74-32.81h16.3l-25.78,49.32h-16.23l-8.19-49.32Z"/>
    <path class="cls-1" d="M180.56,81.52l8.66-49.32h16.16l-8.66,49.32h-16.17Z"/>
    <path class="cls-1" d="M238.64,46.52c.03-1.71-.68-2.74-1.74-3.35-1.06-.62-2.45-.89-4.02-.89-3.56,0-5.32,1.03-5.63,2.81-1.3,7.4,27.86,2.81,24.71,20.76-2.01,11.44-12.5,16.98-26.07,16.98s-20.17-7.6-18.95-16.5h15.48c.03,1.78.76,3.08,1.99,3.9,1.16.82,2.8,1.23,4.37,1.23,4.04,0,6.94-1.31,7.35-3.63,1.31-7.47-27.95-2.33-24.64-21.17,1.84-10.48,11.81-15.76,24.14-15.76,13.7,0,18.71,6.99,18.35,15.62h-15.34Z"/>
    <path class="cls-1" d="M256.22,81.52l8.66-49.32h16.17l-2.92,16.65h15.27l2.92-16.65h16.17l-8.66,49.32h-16.17l3.35-19.11h-15.27l-3.35,19.11h-16.17Z"/>
    <g>
      <path class="cls-1" d="M130.53,109.03c.03-1.73-.69-2.77-1.76-3.39-1.07-.63-2.48-.9-4.07-.9-3.61,0-5.38,1.04-5.7,2.83-1.32,7.47,28.21,2.84,25.02,20.96-2.03,11.55-12.66,17.15-26.39,17.15s-20.42-7.68-19.19-16.67h15.67c.03,1.8.77,3.11,2.01,3.94,1.17.83,2.83,1.24,4.43,1.24,4.09,0,7.03-1.32,7.44-3.67,1.33-7.54-28.3-2.35-24.95-21.38,1.86-10.58,11.95-15.91,24.44-15.91,13.87,0,18.94,7.06,18.58,15.77h-15.53Z"/>
      <path class="cls-1" d="M148.82,144.38l8.77-49.81h16.36l-8.76,49.81h-16.37Z"/>
      <path class="cls-1" d="M175.81,144.38l8.77-49.81h16.37l-6.72,38.19h22.47l-2.04,11.62h-38.84Z"/>
      <path class="cls-1" d="M220.73,94.57h16.51l2.91,33.14,14.92-33.14h16.51l-26.11,49.81h-16.44l-8.3-49.81Z"/>
      <path class="cls-1" d="M260.05,144.38l26.66-49.81h16.64l9.13,49.81h-16.3l-.78-6.57h-16.3l-3.03,6.57h-16.02ZM292.25,109.59l-8.21,17.84h10.33l-2.13-17.84Z"/>
    </g>
  </g>
</svg>